<?xml version="1.0" encoding="UTF-8"?>
<svg id="Layer_1" data-name="Layer 1" xmlns="http://www.w3.org/2000/svg" viewBox="0 0 451.7 352.4">
  <defs>
    <style>
      .cls-1 {
        fill: #4655a5;
      }
    </style>
  </defs>
  <path class="cls-1" d="M219.79,30.91c38.39-2.32,86.99,17.21,107.66,50.82,10.53,17.13-4.1,37.8-23.68,32.67-7.9-2.07-9.88-6.9-14.71-12.25-49.06-54.36-133.31-26.49-142.05,44.69l.02,152.78c-1.83,28.02-38.41,29.69-42.98,2.99v-156.79c4.34-61.39,54.15-111.18,115.75-114.9Z"/>
  <path class="cls-1" d="M165.37,205.6c.2.12.45,1,.83,1.39,30.75,31.46,74.58,38.88,110.85,10.96,7.78-5.99,10.95-11.91,17.23-18.22,15.35-15.44,43.33,0,36.11,21.63-2.84,8.52-18.61,23.79-25.87,29.55-35.81,28.44-84.69,35.01-126.74,16.42-5.6-2.48-15.19-5.96-15.82-12.64-1.41-15.02,1.12-32.21,0-47.47-.42-1.79,2.32-2.25,3.42-1.61Z"/>
  <path class="cls-1" d="M325.66,132.73c27.94-1.07,29.69,40.91,2.82,42.8-29.58,2.08-30.81-41.73-2.82-42.8Z"/>
</svg>